<svg xmlns="http://www.w3.org/2000/svg" viewBox="0 0 318.15 113.34">
    <path d="M318.13 65.89v1.84c0 3.23-.22 6.45-.4 9.68-.15 1.3-.34 2.6-.47 3.91-.52 3.06-.91 6.13-1.69 9.14-.62 2.35-1.05 4.79-2.88 6.62a14.46 14.46 0 0 1-1.69 1.64 30.64 30.64 0 0 1-7 3.56c-2.52.82-11.14 1.55-12.84 1.92-7.37.72-14.76.28-22.14.37-2.41.16-4.84-.25-7.23.24-.62 2-.7 4.22-1.84 6.1a4.93 4.93 0 0 1-2.09 2.08c-1.22.52-2.4.58-3.33-.62a1.65 1.65 0 0 1-.19-.82 14.61 14.61 0 0 1 .32-1.6c.32-1.19.61-2.38.89-3.58.13-.55.41-1.14-.16-1.63-3.27-.32-6.55-.06-9.82-.17-1.7-.06-3.4 0-5.1 0-2.25.07-4.5.07-6.75 0h-21.48c-4.71.16-9.41-.11-14.12 0-2.28.08-4.55.07-6.83 0-4.7-.14-9.41.14-14.12 0h-21.49c-2.29.08-4.58.07-6.87 0h-35.57c-2.28.08-4.57.07-6.85 0-4.71-.14-9.42.14-14.13 0H70.73c-4.71.16-9.42-.11-14.14 0q-3.59.12-7.18 0H28.3c-4.61.15-9.22-.08-13.83 0a16.74 16.74 0 0 1-7-1.49A10.55 10.55 0 0 1 2 96.48a39.61 39.61 0 0 1-1.18-5.69C.24 87 .34 83.11.12 79.28c-.09-1 0-2.1 0-3.15V62C0 60.13 0 40.21.08 39.25v-7c.18-1.84.17-3.68.2-5.52.2-2.34.54-4.67 1-7a14.06 14.06 0 0 1 3.28-7.43 16.32 16.32 0 0 1 2.54-2 13.89 13.89 0 0 1 4.73-1.53h233.72c3.29 0 6.59.1 9.87-.19.71-.51.35-1.15.19-1.76-.43-1.53-.78-3.08-1.18-4.61a1.9 1.9 0 0 1 .01-1.21c1.39-1.36 2.8-1.38 4.33-.1 1.74 1.43 2 3.52 2.55 5.5.27.69-.12 1.54.57 2.11a71.86 71.86 0 0 0 7.76.18c5.76.09 11.52 0 17.28 0 .65-.05 9.8.65 11.06.79 1.9.48 3.82.88 5.69 1.48a28.71 28.71 0 0 1 3.43 1.35 23.12 23.12 0 0 1 4 2.35 10.85 10.85 0 0 1 3.7 5.32 58.42 58.42 0 0 1 1.52 6.27c.61 2.8.87 5.66 1.3 8.49.14 1.72.35 3.44.34 5.17s.26 24.91.16 25.98z" fill="#c54d4d"/>
    <path d="M265.91 97c-4.42-.13-10-1.54-15.68-2.6-2.77-.51-5.52-1.21-8.31-1.55-1.44-.18-1.59-.8-1.46-1.94.4-3.5.78-7 1.16-10.51.32-3 .72-6 .94-8.94a212.26 212.26 0 0 0 .31-23.66q-.44-10.83-2-21.58c-.09-.64-.06-1.3-.13-1.94-.35-3.6-.33-3.47 3.31-4.09 5-.86 10-2 15-2.93a34.58 34.58 0 0 1 11-.71c3.76.5 5.72 2.71 6.66 6.12a126.54 126.54 0 0 1 3.23 15.16A123 123 0 0 1 281.42 57a132.12 132.12 0 0 1-4.57 33.61C275.54 95.38 273 97 265.91 97z" opacity="0.52" fill="#fff"/>
    <path d="M24.32 27a371 371 0 0 0-1 38.31c.15 6.81.67 13.62 1 20.44a4.61 4.61 0 0 1 0 1.23c-.28 1.16.84 3-1.28 3.28-3 .46-4.27-.19-4.83-2.71a29.05 29.05 0 0 1-.56-5.55c-.16-5.24-.64-10.45-.88-15.68-.22-4.84-.26-9.66-.2-14.49.08-7.23.61-14.44 1.3-21.65.17-1.86-.14-3.78.82-5.53.76-1.39 3.72-2.28 5.07-1.48a1.29 1.29 0 0 1 .55 1.22c.02.87.01 1.75.01 2.61z" opacity="0.52" fill="#fff"/>
    <path d="M54.2 92.7h20.34c1.23 0 1.58.27 1.47 1.53a32.35 32.35 0 0 0 0 5.48c.15 1.65-.49 1.93-2 1.92-12.32-.06-24.64 0-37 0h-2.66c-2.77-.08-5-2.06-5.06-4.41 0-2.62 2-4.44 5.05-4.45q9.95-.08 19.86-.07z" opacity="0.52" fill="#fff"/>
    <path d="M54.42 21.29H35.14c-3.08 0-5.11-1.74-5.14-4.38s2-4.47 5.06-4.47h39.63c1 0 1.44.06 1.33 1.3a44.64 44.64 0 0 0 0 6c.06 1.24-.35 1.61-1.59 1.6-6.68-.08-13.34-.05-20.01-.05z" opacity="0.52" fill="#fff"/>
    <path d="M294.53 18.5c0-4.78 3-6.63 7.06-4.51 4.33 2.28 6.73 6.11 8.15 10.62a24.05 24.05 0 0 1 1.17 7.1c0 .92-.26 1.19-1.11.85-5.35-2.18-10.2-5.08-13.86-9.68a6.44 6.44 0 0 1-1.41-4.38zM310.93 80.64c-.24 7.21-2 13.65-8.29 18-1.91 1.34-4.08 2.29-6.39.74-1.63-1.1-2.24-4-1.48-6.69a8.25 8.25 0 0 1 2-3.32A34.63 34.63 0 0 1 309.23 81a9.16 9.16 0 0 1 1-.33 3.81 3.81 0 0 1 .7-.03z" fill="#edc27e"/>
    <path d="M131.56 21.29c-3 0-6-.07-9 0-1.36 0-1.72-.41-1.65-1.72.11-1.94.07-3.89 0-5.83 0-1 .21-1.37 1.26-1.36h18.73c.73 0 1 .13 1 1-.1 2.29-.12 4.6 0 6.89.05 1-.37 1-1.1 1-3.11 0-6.18.02-9.24.02z" opacity="0.52" fill="#fff"/>
    <path d="M131.68 92.7h9c.81 0 1.22 0 1.16 1.13a65.11 65.11 0 0 0 0 6.7c0 .84-.25 1-1 1h-18.89c-1 0-1.12-.51-1.11-1.33 0-2.06.06-4.12 0-6.18 0-1.13.41-1.39 1.44-1.38 3.17.09 6.29.06 9.4.06z" opacity="0.52" fill="#fff"/>
    <path d="M87.48 92.7h9c1.06 0 1.45.3 1.41 1.4q-.12 3.09 0 6.18c0 1-.34 1.32-1.31 1.31H78.75c-1.08 0-1.44-.34-1.4-1.42a61.1 61.1 0 0 0 0-6.35c-.07-1.1.37-1.13 1.17-1.12 2.96.01 5.96 0 8.96 0z" opacity="0.52" fill="#fff"/>
    <path d="M87.49 21.29h-8.83c-1 0-1.34-.32-1.31-1.33q.09-3.16 0-6.35c0-.95.34-1.21 1.23-1.21h18c1 0 1.34.31 1.31 1.32-.07 2.06-.09 4.12 0 6.18 0 1.11-.35 1.42-1.41 1.41-2.99-.06-5.99-.02-8.99-.02z" opacity="0.52" fill="#fff"/>
    <path class="cls-3" d="M174.79 92.69h9c1.18 0 1.54.3 1.33 1.54a18.12 18.12 0 0 0 0 6c.16 1-.07 1.39-1.13 1.38h-18.38c-.93 0-1.27-.29-1.1-1.25a21 21 0 0 0 .06-6.33c-.15-1.14.24-1.31 1.19-1.31 3.02-.01 6.03-.03 9.03-.03z" opacity="0.52" fill="#fff"/>
    <path class="cls-3" d="M174.77 21.29h-9c-1 0-1.31-.19-1.16-1.32a21.13 21.13 0 0 0 0-6.15c-.16-1 0-1.43 1.09-1.42h18.38c.88 0 1.2.17 1.1 1.21a25 25 0 0 0-.06 6c.24 1.65-.38 1.72-1.64 1.69-2.93-.05-5.82-.02-8.71-.01z" opacity="0.52" fill="#fff"/>
    <path class="cls-3" d="M109.4 21.28h-9c-.84 0-1.2-.1-1.15-1.14a68.86 68.86 0 0 0-.08-6.89c-.05-.86.35-.85.9-.85h18.74c.84 0 .85.35.81 1.09a45.91 45.91 0 0 0 0 6.53c.1 1.18-.26 1.28-1.19 1.27-3.03-.02-6.03 0-9.03-.01z" opacity="0.52" fill="#fff"/>
    <path class="cls-3" d="M109.35 92.7h9c1 0 1.25.24 1.19 1.27a58.85 58.85 0 0 0 0 6.37c.06 1-.18 1.25-1.11 1.25h-18c-1 0-1.25-.32-1.19-1.35a51.91 51.91 0 0 0 0-6.36c-.06-1 .22-1.19 1.11-1.18 2.99.02 6 0 9 0z" opacity="0.52" fill="#fff"/>
    <path class="cls-3" d="M153.14 21.28h-8.66c-1 0-1.33-.32-1.3-1.33q.09-3.09 0-6.18c0-.95.18-1.39 1.24-1.39h17.68c.91 0 1.25.31 1.22 1.23 0 2.12-.06 4.25 0 6.37 0 1-.38 1.3-1.35 1.29-2.97-.01-5.88.01-8.83.01z" opacity="0.52" fill="#fff"/>
    <path class="cls-3" d="M153.16 101.56h-8.46c-1.1 0-1.59-.23-1.53-1.46.1-2.06.05-4.12 0-6.17 0-.9.25-1.27 1.19-1.26h17.81c.83 0 1.25.3 1.12 1.13a22.34 22.34 0 0 0 0 6.48c.15 1-.38 1.29-1.33 1.27-2.96-.02-5.86.01-8.8.01z" opacity="0.52" fill="#fff"/>
    <path class="cls-3" d="M217.59 94.54c5.7.08 11.4.32 17.09.67a1.53 1.53 0 0 1 1.54 1.14c.52 1.37 1.1 2.72 1.73 4.05.43.93.26 1.27-.79 1.22-3.7-.18-7.42-.16-11.1-.52-2.93-.28-5.87-.18-8.8-.48a58.28 58.28 0 0 1-6.45-.81 3.62 3.62 0 0 1-3-3.82c0-1.14 1-1 1.67-1.1a51 51 0 0 1 8.11-.35z" opacity="0.52" fill="#fff"/>
    <path class="cls-3" d="M216.38 18.79a35.39 35.39 0 0 1-5.82-.33c-1-.12-2.27.39-2.64-1.07a3.57 3.57 0 0 1 2-3.61 14 14 0 0 1 4.47-.92c4.22-.33 8.45-.53 12.68-.74 3.29-.17 6.58-.27 9.87-.44 1.12-.06 1.63.18.95 1.34a6.22 6.22 0 0 0-.29.64c-2 4.53-2 4.57-6.92 4.74-4.77.16-9.54 0-14.3.39z" opacity="0.52" fill="#fff"/>
    <path class="cls-3" d="M191.43 12.43h3.71a4.37 4.37 0 0 1 4.46 4.49 4.27 4.27 0 0 1-4.42 4.33c-2.53.08-5.07 0-7.6 0-.94 0-1.23-.35-1.21-1.26 0-2.12.07-4.24 0-6.36 0-1.07.41-1.31 1.35-1.27 1.28.1 2.47.06 3.71.07z" opacity="0.52" fill="#fff"/>
    <path class="cls-3" d="M191.61 92.7h3.53a4.11 4.11 0 0 1 4.35 3.93c.12 2.67-1.46 4.75-4 4.88-2.7.14-5.41 0-8.12 0-.78 0-1-.35-1-1.08v-6.71c0-.9.41-1.09 1.19-1.08 1.34.08 2.7.06 4.05.06z" opacity="0.52" fill="#fff"/>
    <path class="cls-3" d="M239.84 17.39c-1 .1-1.36-.25-.86-1.21a1.3 1.3 0 0 0 .14-.32c.61-4.95 4.39-4.71 7.92-4.79 2.94-.07 5.89 0 8.84-.06 1 0 1.77.2 1.88 1.38a1.82 1.82 0 0 1-1.43 2.25 82.44 82.44 0 0 1-10.91 2c-1.85.29-3.72.51-5.58.75z" opacity="0.52" fill="#fff"/>
    <path class="cls-3" d="M250.9 102.31c-2.57.21-5.6-.47-8.65-.37a1.5 1.5 0 0 1-1.62-1.06c-.49-1.19-1-2.38-1.54-3.55s-.15-1.57 1.07-1.4c2.9.42 5.81.76 8.7 1.22 2.36.39 4.71.9 7.06 1.38 1.22.25 2 .86 1.86 2.3s-1.28 1.45-2.34 1.47c-1.35.03-2.7.01-4.54.01z" opacity="0.52" fill="#fff"/>
    <path d="M310 79.56a1.66 1.66 0 0 1-.56-.1 1.5 1.5 0 0 1-.89-2.06v-.13c.75-3.83 1.34-7.72 1.75-11.56.07-.58.1-1.15.13-1.73s.07-1.42.16-2.15a3.33 3.33 0 0 0 0-.55 2.82 2.82 0 0 1 1-2.54.94.94 0 0 1 .31-.17s0-.06.07-.1a2 2 0 0 1 1.19-.69 1 1 0 0 1 1.12.79 20.48 20.48 0 0 1 .05 6.1c-.06.6-.12 1.2-.16 1.79-.14 2.11-.49 4.21-.82 6.24-.15.9-.31 1.81-.44 2.71a6.31 6.31 0 0 1-1.34 3.22 2.16 2.16 0 0 1-1.57.93z" opacity="0.1" fill="#2a292a"/>
    <path d="M313.38 55.86h-.13a1.92 1.92 0 0 1-1.36-.9 1.29 1.29 0 0 1-.71-.24 1.58 1.58 0 0 1-.55-1.43v-.14a97.37 97.37 0 0 0-2.08-18 1 1 0 0 1 .3-.92 1 1 0 0 1 .94-.24 3.7 3.7 0 0 1 3 3.25 107.61 107.61 0 0 1 1.81 16.94 1.88 1.88 0 0 1-.25.93s-.05.08-.06.11a1 1 0 0 1-.91.64z" opacity="0.1" fill="#2a292a"/>
    <path d="M312.33 53.87c.89-.24.76.59 1.05 1v3.91c-.34.29-.15 1.34-1.09.75a7.07 7.07 0 0 1 .04-5.66z" opacity="0.52" fill="#fff"/>
</svg>
